# xmcd CD database file
#
# Track frame offsets:
#	150
#	10438
#	20125
#	34317
#	45956
#	58271
#	72913
#	85753
#	97060
#	107197
#	117560
#	129274
#
# Disc length: 1897 seconds
#
# Revision: 3
# Processed by: cddbd v1.5.2PL0 Copyright (c) Steve Scherf et al.
# Submitted via: CDex 1.70beta2
#
DISCID=a707670c
DTITLE=RD-CCH (USA-cty-98) - Radio Days - Classic Countyr Hits
DYEAR=1998
DGENRE=Country
TTITLE0=Blue Suede Shoes - Carl Perkins
TTITLE1=From A Jack To a King - Ned Miller
TTITLE2=Harper Valley P.T.A. - Jeannie C. Riley
TTITLE3=Help Me Make It Through The Night - Sammi Smith
TTITLE4=I Walk The Line - Johnny Cash
TTITLE5=If I Said You Had A Beautiful Body - The Bellamy Brothers
TTITLE6=It Keeps Right On  A-Hurtin' - Johnny Tillotson
TTITLE7=Let Me Be The One - Hank Locklin
TTITLE8=Six Days On The Road - Dave Dudley
TTITLE9=This Little Girl Of Mine - The Everly rothers
TTITLE10=Walkin' After Midnight - Patsy Cline
TTITLE11=You Win Again - Jerry Lee Lewis
EXTD=YEAR: 1998
EXTT0=
EXTT1=
EXTT2=
EXTT3=
EXTT4=
EXTT5=
EXTT6=
EXTT7=
EXTT8=
EXTT9=
EXTT10=
EXTT11=
PLAYORDER=
